<svg width="67" height="79" viewBox="0 0 67 79" fill="none" xmlns="http://www.w3.org/2000/svg">
<path fill-rule="evenodd" clip-rule="evenodd" d="M37.8355 8.93429C43.2918 10.182 45.6701 13.8888 46.6696 19.1712C48.9553 16.518 51.856 15.0765 55.8106 15.0765C65.5041 15.0765 69.4051 33.7231 65.5041 50.6485C61.869 66.4199 54.5989 77.7283 46.1171 77.7283C43.7887 77.7283 41.8844 76.7296 40.3833 74.9851C38.4418 77.2596 36.1089 78.5518 33.3944 78.5518C30.8288 78.5518 28.6012 77.4043 26.7252 75.358C25.2141 77.1515 23.2834 78.1721 20.9202 78.1721C12.4383 78.1721 5.52151 68.3932 1.53312 51.0923C-2.45512 33.7915 1.53312 15.5203 11.2267 15.5203C14.9228 15.5203 17.7017 16.7721 19.9162 19.0997C21.1696 12.5747 24.5501 8.47295 33.2861 8.47295L33.3592 8.47305C35.3073 5.54865 38.0439 2.65238 41.8682 0.0715454C42.8847 -0.330748 44.4072 1.08569 44.1839 1.2871C41.8438 3.3982 39.4764 5.77926 37.8355 8.93429Z" fill="#FC630E"/>
<path fill-rule="evenodd" clip-rule="evenodd" d="M29.4848 44.9046C29.4848 45.3761 29.8657 45.7583 30.3355 45.7583H33.4323C33.8761 45.7583 34.4488 45.7345 35.1497 45.6869C35.8498 45.6393 36.5163 45.4889 37.1491 45.2346C37.7811 44.9808 38.3282 44.5605 38.7896 43.9726C39.251 43.3856 39.4817 42.5679 39.4817 41.5204C39.4817 40.4728 39.2422 39.6715 38.7639 39.1157C38.285 38.5606 37.713 38.1559 37.0465 37.9015C36.3801 37.6477 35.6792 37.4967 34.9447 37.4491C34.2093 37.4015 33.5861 37.3777 33.0735 37.3777H30.3355C29.8657 37.3777 29.4848 37.7598 29.4848 38.2314V44.9046ZM20.2057 30.5403C20.2057 29.951 20.7201 29.4733 21.3547 29.4733H32.6121C34.3551 29.4733 35.8499 29.5372 37.0979 29.6638C38.345 29.7909 39.4217 29.9658 40.3276 30.1875C41.2327 30.41 41.9937 30.68 42.609 30.9969C43.2241 31.3147 43.788 31.6636 44.3007 32.0446C45.8042 33.1874 46.9233 34.5765 47.6586 36.2111C48.3932 37.8464 48.7608 39.5681 48.7608 41.3776C48.7608 42.2667 48.6663 43.1632 48.4788 44.068C48.2906 44.9727 48.0175 45.8298 47.6586 46.6393C47.2998 47.4488 46.8808 48.195 46.4026 48.8773C45.9235 49.5603 45.3773 50.1392 44.7621 50.6154C44.1125 51.1235 43.446 51.5677 42.7627 51.9486C42.0786 52.3295 41.3096 52.6473 40.4558 52.9009C39.6011 53.1554 38.627 53.3459 37.5336 53.4724C36.4394 53.5996 35.1577 53.6628 33.6886 53.6628H30.6338C29.9993 53.6628 29.4848 54.1407 29.4848 54.73V63.643C29.4848 64.2323 28.9704 64.7101 28.3359 64.7101H21.3547C20.7201 64.7101 20.2057 64.2323 20.2057 63.643V30.5403Z" fill="white"/>
<path fill-rule="evenodd" clip-rule="evenodd" d="M29.4848 44.9046C29.4848 45.3761 29.8657 45.7583 30.3355 45.7583H33.4323C33.8761 45.7583 34.4488 45.7345 35.1497 45.6869C35.8498 45.6393 36.5163 45.4889 37.1491 45.2346C37.7811 44.9808 38.3282 44.5605 38.7896 43.9726C39.251 43.3856 39.4817 42.5679 39.4817 41.5204C39.4817 40.4728 39.2422 39.6715 38.7639 39.1157C38.285 38.5606 37.713 38.1559 37.0465 37.9015C36.3801 37.6477 35.6792 37.4967 34.9447 37.4491C34.2093 37.4015 33.5861 37.3777 33.0735 37.3777H30.3355C29.8657 37.3777 29.4848 37.7598 29.4848 38.2314V44.9046ZM20.2057 30.5403C20.2057 29.951 20.7201 29.4733 21.3547 29.4733H32.6121C34.3551 29.4733 35.8499 29.5372 37.0979 29.6638C38.345 29.7909 39.4217 29.9658 40.3276 30.1875C41.2327 30.41 41.9937 30.68 42.609 30.9969C43.2241 31.3147 43.788 31.6636 44.3007 32.0446C45.8042 33.1874 46.9233 34.5765 47.6586 36.2111C48.3932 37.8464 48.7608 39.5681 48.7608 41.3776C48.7608 42.2667 48.6663 43.1632 48.4788 44.068C48.2906 44.9727 48.0175 45.8298 47.6586 46.6393C47.2998 47.4488 46.8808 48.195 46.4026 48.8773C45.9235 49.5603 45.3773 50.1392 44.7621 50.6154C44.1125 51.1235 43.446 51.5677 42.7627 51.9486C42.0786 52.3295 41.3096 52.6473 40.4558 52.9009C39.6011 53.1554 38.627 53.3459 37.5336 53.4724C36.4394 53.5996 35.1577 53.6628 33.6886 53.6628H30.6338C29.9993 53.6628 29.4848 54.1407 29.4848 54.73V63.643C29.4848 64.2323 28.9704 64.7101 28.3359 64.7101H21.3547C20.7201 64.7101 20.2057 64.2323 20.2057 63.643V30.5403Z" fill="white"/>
<circle opacity="0.1" cx="48" cy="69" r="5" fill="white"/>
<circle opacity="0.1" cx="56" cy="23" r="5" fill="white"/>
<circle opacity="0.06" cx="57" cy="22" r="2" fill="white"/>
</svg>